<svg width="136" height="31" viewBox="0 0 136 31" fill="none" xmlns="http://www.w3.org/2000/svg">
<g opacity="0.7">
<path d="M0.264137 23.6687C0.21131 23.9872 0.158482 24.4651 0.422619 25.2084C1.26786 27.4914 3.96206 28.8188 4.54316 29.0842C6.76191 30.1461 8.76935 30.1992 9.66742 30.1992C10.09 30.1992 11.7805 30.1992 13.8936 29.509C14.686 29.2435 15.8482 28.8719 17.0633 27.9693C18.2255 27.1198 18.7009 26.3234 18.8594 26.111C18.8594 26.111 18.8594 26.111 18.8594 26.0579C19.0179 25.7924 19.5462 24.9429 19.3877 23.881C19.3877 23.7218 19.1764 22.713 18.3311 22.0758C18.3311 22.0758 16.9048 21.1201 15.32 21.9697C15.2671 21.9697 15.2143 22.0227 15.2143 22.0227C15.1086 22.1289 15.003 22.182 15.003 22.182C14.8445 22.3413 14.2634 22.8723 14.2106 22.9253C14.2106 22.9253 13.8408 23.2439 12.8899 23.881C12.7842 23.9341 12.6786 24.0403 12.6786 24.0403L12.6258 24.0934C12.3616 24.2527 11.8333 24.5182 11.1994 24.6774C10.724 24.7836 9.72025 25.1022 8.45239 24.7836C7.39584 24.5713 6.65626 24.0403 6.33929 23.8279C5.86384 23.5094 5.81102 23.3501 4.75447 22.5006C3.96206 21.8635 3.80358 21.7573 3.53944 21.7042C2.58854 21.3856 1.69048 21.8635 1.58482 21.9697C1.47917 21.9166 0.475447 22.5006 0.264137 23.6687Z" fill="#297BCA"/>
<path d="M18.8594 9.86347C18.8594 7.31496 18.9122 4.71335 18.9122 2.16484C18.8594 1.95246 18.7537 1.68699 18.4896 1.36843C18.3311 1.10296 17.9085 0.57202 17.1689 0.30655C17.0104 0.253456 16.4293 0.0941742 15.7954 0.30655C14.9502 0.57202 14.5804 1.31534 14.4747 1.47462C14.3162 1.74009 14.2634 2.00556 14.2634 2.16484C14.2634 2.27103 14.2634 2.37722 14.2634 2.4834C12.8371 1.6339 11.1994 1.10296 9.40328 1.10296C4.22619 1.15605 0 5.40357 0 10.6599C0 15.9162 4.22619 20.1106 9.40328 20.1106C14.5804 20.1106 18.8066 15.8631 18.8066 10.6599C18.8594 10.3944 18.8066 10.1289 18.8594 9.86347ZM9.40328 14.9074C7.02605 14.9074 5.17709 12.996 5.17709 10.6068C5.17709 8.21755 7.07888 6.30617 9.45611 6.30617C11.8333 6.30617 13.7351 8.21755 13.7351 10.6068C13.7351 12.996 11.7805 14.9074 9.40328 14.9074Z" fill="#297BCA"/>
<path d="M33.1684 8.67156C33.9501 8.67156 34.6373 8.82996 35.2299 9.14677C35.8225 9.45091 36.2891 9.85009 36.6295 10.3443V8.84263H39.2963V19.4494C39.2963 20.4252 39.1008 21.2933 38.71 22.0536C38.3191 22.8266 37.7328 23.4349 36.951 23.8785C36.1693 24.3347 35.2236 24.5628 34.114 24.5628C32.6262 24.5628 31.4032 24.2143 30.4449 23.5173C29.4992 22.8203 28.9634 21.8699 28.8373 20.666H31.4662C31.6049 21.1475 31.9012 21.5277 32.3551 21.8065C32.8217 22.098 33.3827 22.2437 34.0384 22.2437C34.8075 22.2437 35.4317 22.0093 35.9108 21.5404C36.3899 21.0842 36.6295 20.3872 36.6295 19.4494V17.8147C36.2891 18.3089 35.8162 18.7208 35.211 19.0503C34.6184 19.3797 33.9375 19.5445 33.1684 19.5445C32.2858 19.5445 31.4788 19.3164 30.7475 18.8602C30.0162 18.404 29.4362 17.764 29.0075 16.9403C28.5914 16.1039 28.3834 15.1472 28.3834 14.07C28.3834 13.0055 28.5914 12.0614 29.0075 11.2377C29.4362 10.414 30.0099 9.78039 30.7286 9.33686C31.4599 8.89332 32.2732 8.67156 33.1684 8.67156ZM36.6295 14.108C36.6295 13.4617 36.5034 12.9105 36.2512 12.4543C35.9991 11.9854 35.6586 11.6306 35.2299 11.3898C34.8012 11.1363 34.341 11.0096 33.8493 11.0096C33.3575 11.0096 32.9036 11.13 32.4875 11.3708C32.0714 11.6116 31.731 11.9664 31.4662 12.4353C31.214 12.8915 31.0879 13.4364 31.0879 14.07C31.0879 14.7036 31.214 15.2612 31.4662 15.7428C31.731 16.2116 32.0714 16.5728 32.4875 16.8263C32.9162 17.0797 33.3701 17.2064 33.8493 17.2064C34.341 17.2064 34.8012 17.086 35.2299 16.8453C35.6586 16.5918 35.9991 16.237 36.2512 15.7808C36.5034 15.3119 36.6295 14.7543 36.6295 14.108Z" fill="#297BCA"/>
<path d="M46.535 19.5445C45.5263 19.5445 44.6185 19.3227 43.8115 18.8792C43.0045 18.423 42.3678 17.783 41.9013 16.9593C41.4473 16.1356 41.2204 15.1852 41.2204 14.108C41.2204 13.0309 41.4536 12.0804 41.9202 11.2567C42.3993 10.433 43.0487 9.7994 43.8682 9.35587C44.6878 8.89966 45.6019 8.67156 46.6106 8.67156C47.6193 8.67156 48.5335 8.89966 49.3531 9.35587C50.1726 9.7994 50.8157 10.433 51.2822 11.2567C51.7613 12.0804 52.0009 13.0309 52.0009 14.108C52.0009 15.1852 51.755 16.1356 51.2633 16.9593C50.7842 17.783 50.1285 18.423 49.2963 18.8792C48.4767 19.3227 47.5563 19.5445 46.535 19.5445ZM46.535 17.2254C47.0141 17.2254 47.4617 17.1114 47.8778 16.8833C48.3065 16.6425 48.647 16.2877 48.8991 15.8188C49.1513 15.3499 49.2774 14.7797 49.2774 14.108C49.2774 13.1069 49.0126 12.3402 48.483 11.808C47.9661 11.2631 47.3293 10.9906 46.5728 10.9906C45.8163 10.9906 45.1795 11.2631 44.6626 11.808C44.1582 12.3402 43.9061 13.1069 43.9061 14.108C43.9061 15.1091 44.1519 15.8822 44.6437 16.4271C45.148 16.9593 45.7785 17.2254 46.535 17.2254Z" fill="#297BCA"/>
<path d="M58.5958 19.5445C57.5871 19.5445 56.6793 19.3227 55.8723 18.8792C55.0654 18.423 54.4286 17.783 53.9621 16.9593C53.5082 16.1356 53.2812 15.1852 53.2812 14.108C53.2812 13.0309 53.5145 12.0804 53.981 11.2567C54.4602 10.433 55.1095 9.7994 55.9291 9.35587C56.7487 8.89966 57.6628 8.67156 58.6715 8.67156C59.6802 8.67156 60.5943 8.89966 61.4139 9.35587C62.2335 9.7994 62.8765 10.433 63.3431 11.2567C63.8222 12.0804 64.0617 13.0309 64.0617 14.108C64.0617 15.1852 63.8159 16.1356 63.3241 16.9593C62.845 17.783 62.1893 18.423 61.3572 18.8792C60.5376 19.3227 59.6171 19.5445 58.5958 19.5445ZM58.5958 17.2254C59.075 17.2254 59.5226 17.1114 59.9387 16.8833C60.3674 16.6425 60.7078 16.2877 60.96 15.8188C61.2122 15.3499 61.3382 14.7797 61.3382 14.108C61.3382 13.1069 61.0735 12.3402 60.5439 11.808C60.0269 11.2631 59.3902 10.9906 58.6337 10.9906C57.8771 10.9906 57.2404 11.2631 56.7234 11.808C56.2191 12.3402 55.9669 13.1069 55.9669 14.108C55.9669 15.1091 56.2128 15.8822 56.7045 16.4271C57.2089 16.9593 57.8393 17.2254 58.5958 17.2254Z" fill="#297BCA"/>
<path d="M65.3232 14.07C65.3232 13.0055 65.5312 12.0614 65.9473 11.2377C66.376 10.414 66.956 9.78039 67.6873 9.33686C68.4186 8.89332 69.2319 8.67156 70.1271 8.67156C70.808 8.67156 71.4573 8.82363 72.0752 9.12776C72.693 9.41923 73.1848 9.81207 73.5504 10.3063V5.30703H76.2361V19.3734H73.5504V17.8147C73.2226 18.3343 72.7624 18.7525 72.1697 19.0693C71.5771 19.3861 70.8899 19.5445 70.1082 19.5445C69.2256 19.5445 68.4186 19.3164 67.6873 18.8602C66.956 18.404 66.376 17.764 65.9473 16.9403C65.5312 16.1039 65.3232 15.1472 65.3232 14.07ZM73.5693 14.108C73.5693 13.4617 73.4432 12.9105 73.1911 12.4543C72.9389 11.9854 72.5984 11.6306 72.1697 11.3898C71.741 11.1363 71.2808 11.0096 70.7891 11.0096C70.2973 11.0096 69.8434 11.13 69.4273 11.3708C69.0112 11.6116 68.6708 11.9664 68.406 12.4353C68.1538 12.8915 68.0278 13.4364 68.0278 14.07C68.0278 14.7036 68.1538 15.2612 68.406 15.7428C68.6708 16.2116 69.0112 16.5728 69.4273 16.8263C69.856 17.0797 70.31 17.2064 70.7891 17.2064C71.2808 17.2064 71.741 17.086 72.1697 16.8453C72.5984 16.5918 72.9389 16.237 73.1911 15.7808C73.4432 15.3119 73.5693 14.7543 73.5693 14.108Z" fill="#297BCA"/>
<path d="M82.8318 19.5445C81.9744 19.5445 81.2052 19.3924 80.5243 19.0883C79.8435 18.7715 79.3013 18.3469 78.8978 17.8147C78.5069 17.2825 78.2926 16.6932 78.2548 16.0469H80.9215C80.972 16.4524 81.1674 16.7882 81.5078 17.0544C81.8609 17.3205 82.2959 17.4535 82.8128 17.4535C83.3172 17.4535 83.7081 17.3522 83.9855 17.1494C84.2755 16.9466 84.4205 16.6869 84.4205 16.37C84.4205 16.0279 84.2439 15.7744 83.8909 15.6097C83.5504 15.4323 83.002 15.2422 82.2454 15.0394C81.4637 14.8494 80.8207 14.6529 80.3163 14.4502C79.8246 14.2474 79.3959 13.9369 79.0302 13.5188C78.6772 13.1006 78.5006 12.5366 78.5006 11.827C78.5006 11.2441 78.6646 10.7118 78.9924 10.2303C79.3328 9.74871 79.812 9.36854 80.4298 9.08975C81.0602 8.81095 81.7978 8.67156 82.6426 8.67156C83.8909 8.67156 84.887 8.98837 85.6309 9.62199C86.3748 10.2429 86.7846 11.0857 86.8603 12.1501H84.3259C84.2881 11.7319 84.1115 11.4025 83.7963 11.1617C83.4937 10.9082 83.0839 10.7815 82.567 10.7815C82.0878 10.7815 81.7159 10.8702 81.4511 11.0476C81.1989 11.225 81.0728 11.4722 81.0728 11.789C81.0728 12.1438 81.2494 12.4163 81.6024 12.6063C81.9554 12.7838 82.5039 12.9675 83.2478 13.1576C84.0044 13.3477 84.6285 13.5441 85.1202 13.7469C85.612 13.9496 86.0344 14.2664 86.3874 14.6973C86.7531 15.1155 86.9422 15.6731 86.9548 16.37C86.9548 16.9783 86.7846 17.5232 86.4442 18.0048C86.1163 18.4863 85.6372 18.8665 85.0068 19.1453C84.3889 19.4114 83.6639 19.5445 82.8318 19.5445Z" fill="#297BCA"/>
<path d="M91.7762 10.3633C92.1167 9.88177 92.5832 9.48259 93.1758 9.16578C93.781 8.8363 94.4682 8.67156 95.2373 8.67156C96.1326 8.67156 96.9395 8.89332 97.6582 9.33686C98.3895 9.78039 98.9632 10.414 99.3793 11.2377C99.808 12.0488 100.022 12.9928 100.022 14.07C100.022 15.1472 99.808 16.1039 99.3793 16.9403C98.9632 17.764 98.3895 18.404 97.6582 18.8602C96.9395 19.3164 96.1326 19.5445 95.2373 19.5445C94.4682 19.5445 93.7873 19.3861 93.1947 19.0693C92.6147 18.7525 92.1419 18.3533 91.7762 17.8717V24.3917H89.1284V8.84263H91.7762V10.3633ZM97.3178 14.07C97.3178 13.4364 97.1854 12.8915 96.9206 12.4353C96.6684 11.9664 96.328 11.6116 95.8993 11.3708C95.4832 11.13 95.0293 11.0096 94.5375 11.0096C94.0584 11.0096 93.6045 11.1363 93.1758 11.3898C92.7597 11.6306 92.4193 11.9854 92.1545 12.4543C91.9023 12.9232 91.7762 13.4744 91.7762 14.108C91.7762 14.7416 91.9023 15.2929 92.1545 15.7618C92.4193 16.2307 92.7597 16.5918 93.1758 16.8453C93.6045 17.086 94.0584 17.2064 94.5375 17.2064C95.0293 17.2064 95.4832 17.0797 95.8993 16.8263C96.328 16.5728 96.6684 16.2116 96.9206 15.7428C97.1854 15.2739 97.3178 14.7163 97.3178 14.07Z" fill="#297BCA"/>
<path d="M101.266 14.07C101.266 13.0055 101.474 12.0614 101.89 11.2377C102.318 10.414 102.892 9.78039 103.611 9.33686C104.342 8.89332 105.155 8.67156 106.051 8.67156C106.832 8.67156 107.513 8.82996 108.093 9.14677C108.686 9.46358 109.159 9.86276 109.512 10.3443V8.84263H112.179V19.3734H109.512V17.8337C109.171 18.3279 108.698 18.7398 108.093 19.0693C107.501 19.3861 106.813 19.5445 106.032 19.5445C105.149 19.5445 104.342 19.3164 103.611 18.8602C102.892 18.404 102.318 17.764 101.89 16.9403C101.474 16.1039 101.266 15.1472 101.266 14.07ZM109.512 14.108C109.512 13.4617 109.386 12.9105 109.133 12.4543C108.881 11.9854 108.541 11.6306 108.112 11.3898C107.683 11.1363 107.223 11.0096 106.732 11.0096C106.24 11.0096 105.786 11.13 105.37 11.3708C104.954 11.6116 104.613 11.9664 104.348 12.4353C104.096 12.8915 103.97 13.4364 103.97 14.07C103.97 14.7036 104.096 15.2612 104.348 15.7428C104.613 16.2116 104.954 16.5728 105.37 16.8263C105.798 17.0797 106.252 17.2064 106.732 17.2064C107.223 17.2064 107.683 17.086 108.112 16.8453C108.541 16.5918 108.881 16.237 109.133 15.7808C109.386 15.3119 109.512 14.7543 109.512 14.108Z" fill="#297BCA"/>
<path d="M114.084 14.108C114.084 13.0182 114.304 12.0678 114.746 11.2567C115.187 10.433 115.799 9.7994 116.58 9.35587C117.362 8.89966 118.257 8.67156 119.266 8.67156C120.565 8.67156 121.636 9.00104 122.481 9.66001C123.339 10.3063 123.912 11.2187 124.202 12.3972H121.346C121.195 11.941 120.937 11.5862 120.571 11.3328C120.218 11.0666 119.777 10.9336 119.247 10.9336C118.49 10.9336 117.892 11.2124 117.45 11.77C117.009 12.3149 116.788 13.0942 116.788 14.108C116.788 15.1091 117.009 15.8885 117.45 16.4461C117.892 16.991 118.49 17.2635 119.247 17.2635C120.319 17.2635 121.019 16.7819 121.346 15.8188H124.202C123.912 16.9593 123.339 17.8654 122.481 18.537C121.624 19.2087 120.552 19.5445 119.266 19.5445C118.257 19.5445 117.362 19.3227 116.58 18.8792C115.799 18.423 115.187 17.7894 114.746 16.9783C114.304 16.1546 114.084 15.1978 114.084 14.108Z" fill="#297BCA"/>
<path d="M135.882 13.8799C135.882 14.2601 135.857 14.6022 135.807 14.9064H128.147C128.21 15.6667 128.475 16.2623 128.941 16.6932C129.408 17.1241 129.981 17.3395 130.662 17.3395C131.646 17.3395 132.346 16.915 132.762 16.0659H135.618C135.315 17.0797 134.735 17.9161 133.878 18.575C133.02 19.2213 131.967 19.5445 130.719 19.5445C129.71 19.5445 128.803 19.3227 127.996 18.8792C127.201 18.423 126.577 17.783 126.123 16.9593C125.682 16.1356 125.461 15.1852 125.461 14.108C125.461 13.0182 125.682 12.0614 126.123 11.2377C126.564 10.414 127.182 9.78039 127.977 9.33686C128.771 8.89332 129.685 8.67156 130.719 8.67156C131.715 8.67156 132.604 8.88699 133.386 9.31785C134.18 9.74871 134.792 10.3633 135.22 11.1617C135.662 11.9474 135.882 12.8535 135.882 13.8799ZM133.14 13.1196C133.127 12.4353 132.881 11.8904 132.402 11.4848C131.923 11.0666 131.337 10.8575 130.643 10.8575C129.988 10.8575 129.433 11.0603 128.979 11.4658C128.538 11.8587 128.267 12.4099 128.166 13.1196H133.14Z" fill="#297BCA"/>
</g>
</svg>
